<svg width="5" height="8" viewBox="0 0 5 8" version="1.1" xmlns="http://www.w3.org/2000/svg" xmlns:xlink="http://www.w3.org/1999/xlink">
<title>&#239;&#132;&#133;</title>
<desc>Created using Figma</desc>
<g id="Canvas" transform="translate(-1553 167)">
<g id="&#239;&#132;&#133;">
<use xlink:href="#path0_fill" transform="translate(1553 -170)" fill="#FFFFFF"/>
</g>
</g>
<defs>
<path id="path0_fill" d="M 4.24386 6.65458C 4.29222 6.70294 4.31641 6.75856 4.31641 6.82143C 4.31641 6.8843 4.29222 6.93992 4.24386 6.98828L 0.863281 10.3689C 0.814918 10.4172 0.759301 10.4414 0.696429 10.4414C 0.633557 10.4414 0.577939 10.4172 0.529576 10.3689L 0.166853 10.0061C 0.11849 9.95778 0.094308 9.90216 0.094308 9.83929C 0.094308 9.77641 0.11849 9.7208 0.166853 9.67243L 3.01786 6.82143L 0.166853 3.97042C 0.11849 3.92206 0.094308 3.86644 0.094308 3.80357C 0.094308 3.7407 0.11849 3.68508 0.166853 3.63672L 0.529576 3.274C 0.577939 3.22563 0.633557 3.20145 0.696429 3.20145C 0.759301 3.20145 0.814918 3.22563 0.863281 3.274L 4.24386 6.65458Z"/>
</defs>
</svg>
