<svg width="41" height="41" viewBox="0 0 41 41" version="1.1" xmlns="http://www.w3.org/2000/svg" xmlns:xlink="http://www.w3.org/1999/xlink">
<title>Group 5</title>
<desc>Created using Figma</desc>
<g id="Canvas" transform="translate(-8208 -1270)">
<g id="Group 5">
<g id="Ellipse">
<mask id="mask0_outline_ins">
<use xlink:href="#path0_fill" fill="white" transform="translate(8208 1270)"/>
</mask>
<g mask="url(#mask0_outline_ins)">
<use xlink:href="#path1_stroke_2x" transform="translate(8208 1270)" fill="#434C52"/>
</g>
</g>
<g id="angle-arrow-pointing-to-right">
<g id="Group">
<g id="Vector">
<use xlink:href="#path2_fill" transform="translate(8226 1286)" fill="#434C52"/>
</g>
</g>
</g>
</g>
</g>
<defs>
<path id="path0_fill" d="M 41 20.5C 41 31.8218 31.8218 41 20.5 41C 9.17816 41 0 31.8218 0 20.5C 0 9.17816 9.17816 0 20.5 0C 31.8218 0 41 9.17816 41 20.5Z"/>
<path id="path1_stroke_2x" d="M 40 20.5C 40 31.2696 31.2696 40 20.5 40L 20.5 42C 32.3741 42 42 32.3741 42 20.5L 40 20.5ZM 20.5 40C 9.73045 40 1 31.2696 1 20.5L -1 20.5C -1 32.3741 8.62588 42 20.5 42L 20.5 40ZM 1 20.5C 1 9.73045 9.73045 1 20.5 1L 20.5 -1C 8.62588 -1 -1 8.62588 -1 20.5L 1 20.5ZM 20.5 1C 31.2696 1 40 9.73045 40 20.5L 42 20.5C 42 8.62588 32.3741 -1 20.5 -1L 20.5 1Z"/>
<path id="path2_fill" d="M 5.89719 4.76949L 1.0928 0.100268C 1.02404 0.0335163 0.944926 0 0.855626 0C 0.76629 0 0.687209 0.0335163 0.618492 0.100268L 0.103094 0.601293C 0.0342684 0.66808 -2.20398e-09 0.744799 -2.20398e-09 0.831766C -2.20398e-09 0.918733 0.0342684 0.995452 0.103094 1.06224L 4.15478 5.0001L 0.103094 8.93804C 0.0342684 9.00483 -2.20398e-09 9.08169 -2.20398e-09 9.16841C -2.20398e-09 9.25534 0.0342684 9.3322 0.103094 9.39899L 0.618528 9.89984C 0.687245 9.96669 0.766326 10 0.855662 10C 0.944962 10 1.02404 9.96662 1.0928 9.89984L 5.89694 5.23058C 5.96562 5.16383 6 5.08693 6 5.0001C 6 4.91328 5.96588 4.83642 5.89719 4.76949Z"/>
</defs>
</svg>
